<svg
      xmlns="http://www.w3.org/2000/svg"
      version="1.1"
      viewBox="0 0 3916 1524"
    >
      <path
        fill="#fff"
        strokeWidth="1.276"
        d="M510.018 215.019l493.93 279.383v558.896l-493.93 279.383-493.932-279.383V494.402z"
      ></path>
      <path
        fill="#8ed6fb"
        strokeWidth="1.276"
        d="M915.756 1034.025l-389.402 220.291V1082.78L768.98 949.28zm26.675-24.122v-460.62l-142.436 82.322V927.71zm-839.683 24.122l389.401 220.291V1082.78L249.395 949.28zm-26.675-24.122v-460.62l142.436 82.322V927.71zm16.72-490.485l399.356-225.906v165.792L236.25 600.08l-2.042 1.148zm832.918 0L526.354 293.512v165.792l255.9 140.649 2.042 1.149z"
      ></path>
      <path
        fill="#1c78c0"
        strokeWidth="1.276"
        d="M492.15 1043.725L252.713 912.01V651.26l239.435 138.225zm34.204 0L765.79 912.138V651.261L526.354 789.485zM509.252 779.53zM268.923 621.14l240.329-132.098L749.58 621.14 509.25 759.874z"
      ></path>
      <path
        fill="#1a1c1c"
        strokeWidth="1.276"
        d="M1502.092 950.555h105.295l107.337-357.622H1612.11l-63.56 253.73-67.772-253.73h-88.83l-68.41 253.73-62.923-253.73H1158l106.7 357.622h105.295l66.368-229.097zm218.12-177.79c0 107.338 73.133 186.724 188.129 186.724 88.958 0 136.82-53.35 150.476-78.62l-62.284-47.224c-10.21 15.06-38.289 43.777-86.916 43.777-52.712 0-91.001-34.205-93.043-82.066h251.816c.638-6.892.638-13.657.638-20.549 0-116.91-62.922-190.808-173.706-190.808-101.977 0-175.11 80.663-175.11 188.766zm99.17-39.055c4.084-40.97 32.8-72.494 77.344-72.494 43.14 0 74.536 28.717 76.578 72.494zm285.255 216.845h88.958V913.67c9.573 11.614 45.182 45.819 106.062 45.819 102.615 0 175.109-77.217 175.109-187.362 0-110.784-67.006-188-169.621-188-61.518 0-97.127 34.205-106.062 46.457v-174.47h-94.319v494.44zm91.639-177.79c0-67.006 39.693-105.295 91.638-105.295 54.754 0 91.64 43.139 91.64 105.295 0 63.56-38.29 103.253-91.64 103.253-57.433 0-91.639-46.585-91.639-103.253zm315.248 305.676h94.319v-164.9c8.934 11.615 44.415 45.82 106.06 45.82 102.616 0 169.622-77.216 169.622-188 0-109.38-72.494-187.362-175.11-187.362-60.88 0-96.488 34.205-106.06 46.458v-37.651h-88.96v485.635zm91.639-307.718c0-56.796 34.205-103.253 91.638-103.253 53.35 0 91.64 39.693 91.64 103.253 0 62.284-36.886 105.295-91.64 105.295-51.945 0-91.638-38.289-91.638-105.295zm295.465 69.048c0 75.175 61.518 119.718 134.012 119.718 41.097 0 68.41-12.253 86.917-32.163l6.126 23.229h83.47V724.138c0-80.025-34.205-140.139-149.072-140.139-54.754 0-108.742 20.549-140.905 42.374l35.61 64.326c26.674-13.657 59.475-25.271 95.084-25.271 41.736 0 64.964 21.186 64.964 52.711v23.229c-13.018-8.934-41.097-19.783-77.344-19.783-83.47-.127-138.862 47.734-138.862 118.186zm94.319-2.808c0-29.355 25.27-49.903 61.518-49.903 36.247 0 62.284 18.506 62.284 49.903 0 30.121-26.037 49.266-61.518 49.266-35.482 0-62.284-19.783-62.284-49.266zm445.304 39.055c-59.476 0-101.85-43.139-101.85-103.891 0-57.434 37.651-104.657 98.531-104.657 40.332 0 67.772 19.783 83.47 34.205l26.676-79.387c-23.23-17.74-60.242-38.289-112.826-38.289-108.741 0-190.17 80.025-190.17 188.766 0 108.742 79.387 186.724 190.808 186.724 51.946 0 91.001-21.825 111.422-38.29l-25.271-77.216c-15.826 12.89-44.543 32.035-80.79 32.035zm141.542 74.537h94.32V765.873l119.717 184.682h110.784l-135.417-195.658 125.844-162.091h-106.06l-114.869 150.476V456.113h-94.319z"
      ></path>
    </svg>
